<svg version="1.0" xmlns="http://www.w3.org/2000/svg"
 width="333.000000pt" height="333.000000pt" viewBox="0 0 333.000000 333.000000"
 preserveAspectRatio="xMidYMid meet">

<g transform="translate(0.000000,333.000000) scale(0.100000,-0.100000)"
fill="white" stroke="none">
<path d="M888 2666 c-88 -31 -148 -107 -164 -204 l-7 -42 172 0 171 0 0 30 0
30 215 0 215 0 2 -52 c2 -29 3 -81 3 -115 0 -35 3 -63 8 -63 4 0 77 0 162 0
l155 0 0 93 c0 151 -23 137 226 137 l214 0 0 -30 0 -30 150 0 150 0 0 38 c-1
50 -29 109 -75 154 -73 70 -47 68 -844 68 -565 -1 -724 -4 -753 -14z"/>
<path d="M720 2315 l0 -65 45 0 c41 0 45 2 45 25 l0 25 125 0 125 0 0 40 0 40
-170 0 -170 0 0 -65z"/>
<path d="M2260 2340 l0 -40 150 0 150 0 0 40 0 40 -150 0 -150 0 0 -40z"/>
<path d="M999 2204 c-8 -9 -66 -58 -129 -109 -142 -115 -248 -222 -294 -298
-50 -84 -66 -168 -66 -341 0 -137 1 -146 22 -166 22 -20 29 -20 1133 -20 1091
0 1112 0 1130 20 15 16 17 40 18 172 1 221 -18 284 -120 410 -49 60 -204 200
-340 308 l-53 42 0 -66 0 -66 118 -115 c72 -69 130 -136 148 -168 28 -51 29
-55 29 -200 0 -144 -1 -149 -24 -168 -22 -18 -52 -19 -912 -19 -1032 0 -928
-13 -930 113 -2 181 1 210 29 267 14 30 26 61 25 68 -1 7 1 11 4 8 3 -3 59 44
125 106 l119 111 -3 63 c-2 67 -7 75 -29 48z"/>
<path d="M1115 2195 c-20 -19 -25 -34 -25 -74 0 -27 4 -51 10 -53 5 -1 84 -2
175 0 l165 3 0 74 0 75 -150 0 c-147 0 -152 -1 -175 -25z"/>
<path d="M1480 2145 l0 -75 175 0 175 0 0 75 0 75 -175 0 -175 0 0 -75z"/>
<path d="M1860 2145 l0 -75 133 -1 c72 -1 151 -2 174 -3 l43 -1 0 53 c0 43 -5
58 -25 77 -23 24 -28 25 -175 25 l-150 0 0 -75z"/>
<path d="M1090 1945 l0 -75 175 0 175 0 0 75 0 75 -175 0 -175 0 0 -75z"/>
<path d="M1480 1945 l0 -75 175 0 175 0 0 75 0 75 -175 0 -175 0 0 -75z"/>
<path d="M1860 1945 l0 -75 175 0 175 0 0 75 0 75 -175 0 -175 0 0 -75z"/>
<path d="M1480 1748 l0 -78 175 0 175 0 0 75 c0 53 -4 75 -12 75 -7 0 -86 1
-176 3 l-162 2 0 -77z"/>
<path d="M1860 1751 l0 -81 175 0 175 0 0 75 0 75 -159 0 c-88 0 -166 3 -175
6 -14 5 -16 -5 -16 -75z"/>
<path d="M1090 1745 l0 -75 175 0 175 0 0 75 0 75 -175 0 -175 0 0 -75z"/>
<path d="M1090 1556 c0 -41 4 -76 10 -78 5 -1 84 -2 175 0 l165 3 0 74 0 75
-175 0 -175 0 0 -74z"/>
<path d="M1480 1553 l0 -78 175 0 175 0 0 78 0 77 -175 0 -175 0 0 -77z"/>
<path d="M1860 1555 l0 -75 175 0 175 0 0 75 0 75 -175 0 -175 0 0 -75z"/>
<path d="M1140 1020 c-4 -3 -20 -51 -35 -108 -16 -57 -31 -99 -36 -95 -4 4
-19 52 -34 106 l-28 97 -79 0 -78 0 2 -187 3 -188 55 0 55 0 0 102 c0 56 1
100 2 99 2 -1 16 -47 31 -102 l29 -99 43 0 c48 0 42 -11 88 145 l20 65 0 -90
c0 -138 -5 -126 55 -123 l52 3 3 190 2 190 -71 0 c-39 0 -74 -2 -79 -5z"/>
<path d="M1993 1022 c-8 -5 -13 -41 -15 -97 l-3 -90 -59 93 -60 92 -63 0 -63
0 2 -187 3 -188 49 -3 c27 -2 54 2 60 8 6 6 10 47 10 101 l-1 91 65 -100 65
-100 56 2 56 1 3 191 2 190 -47 2 c-27 1 -53 -1 -60 -6z"/>
<path d="M2179 1019 c-6 -3 -8 -84 -7 -190 l3 -184 145 0 145 0 0 45 0 45 -83
0 -82 0 0 145 0 145 -56 0 c-31 0 -60 -3 -65 -6z"/>
<path d="M1332 973 l3 -48 50 -3 c27 -2 52 -8 56 -13 3 -6 5 -66 5 -134 -1
-75 3 -126 9 -128 6 -2 34 -1 63 1 l52 4 0 134 0 134 55 0 55 0 0 50 0 50
-176 0 -175 0 3 -47z"/>
</g>
</svg>
